<svg xmlns="http://www.w3.org/2000/svg" xmlns:xlink="http://www.w3.org/1999/xlink" viewBox="0,0,256,256" width="48px" height="48px" fill-rule="nonzero"><g fill="#84b6a3" fill-rule="nonzero" stroke="none" stroke-width="1" stroke-linecap="butt" stroke-linejoin="miter" stroke-miterlimit="10" stroke-dasharray="" stroke-dashoffset="0" font-family="none" font-weight="none" font-size="none" text-anchor="none" style="mix-blend-mode: normal"><g transform="scale(5.33333,5.33333)"><path d="M11.5,6c-3.01977,0 -5.5,2.48023 -5.5,5.5v25c0,3.01977 2.48023,5.5 5.5,5.5h25c3.01977,0 5.5,-2.48023 5.5,-5.5v-25c0,-3.01977 -2.48023,-5.5 -5.5,-5.5zM11.5,9h25c1.39823,0 2.5,1.10177 2.5,2.5v25c0,1.39823 -1.10177,2.5 -2.5,2.5h-25c-1.39823,0 -2.5,-1.10177 -2.5,-2.5v-25c0,-1.39823 1.10177,-2.5 2.5,-2.5zM19,15.00781c-1.53896,0 -3.07734,0.58383 -4.24219,1.75c-2.3284,2.32707 -2.33012,6.14363 -0.00781,8.47461l0.00391,0.00391c0.0017,0.0017 0.00221,0.00406 0.00391,0.00586l8.17188,8.30859c0.28181,0.28748 0.66734,0.44963 1.0699,0.44999c0.40257,0.00037 0.78839,-0.16108 1.07072,-0.44804l8.18164,-8.31836l-0.00977,0.00781c2.33049,-2.33049 2.33049,-6.15388 0,-8.48438c-2.32981,-2.33115 -6.15508,-2.33195 -8.48438,0l-0.75781,0.69922l-0.75586,-0.69922c-1.16485,-1.16617 -2.70518,-1.75 -4.24414,-1.75zM19,17.99023c0.76454,0 1.52994,0.29685 2.12109,0.88867c0.01405,0.01395 0.02838,0.02763 0.04297,0.04102l1.81641,1.68164c0.57495,0.53172 1.46216,0.53172 2.03711,0l1.82031,-1.68164c0.01459,-0.01339 0.02892,-0.02706 0.04297,-0.04102c1.18231,-1.18365 3.05793,-1.18365 4.24023,0c1.18351,1.18351 1.18351,3.05868 0,4.24219c-0.00262,0.00324 -0.00522,0.0065 -0.00781,0.00977l-7.11328,7.22852l-7.11133,-7.23047c-0.00324,-0.00327 -0.0065,-0.00653 -0.00977,-0.00977c-1.18454,-1.18387 -1.18454,-3.05636 0,-4.24023c0.00065,0 0.0013,0 0.00195,0c0.59114,-0.59179 1.3546,-0.88867 2.11914,-0.88867z"></path></g></g></svg>